# xmcd
#
# Track frame offsets: 
#        150
#        21737
#        37043
#        60530
#
# Disc length: 1037 seconds
#
# Revision: 3
# Processed by: cddbd v1.5.2PL0 Copyright (c) Steve Scherf et al.
# Submitted via: ExactAudioCopyFreeDBPlugin 1.0
#
DISCID=34040b04
DTITLE=James Downes - South Texas Blues
DYEAR=2001
DGENRE=Country
TTITLE0=Bottle Full Of Memories
TTITLE1=Nearest Bar
TTITLE2=Oklahoma Rain
TTITLE3=South Texas Blues
EXTD=YEAR: 2001 ID3G: 2
EXTT0=
EXTT1=
EXTT2=
EXTT3=
PLAYORDER=
